<?xml version="1.0" encoding="UTF-8" standalone="no"?>
<svg
   xmlns:dc="http://purl.org/dc/elements/1.1/"
   xmlns:cc="http://creativecommons.org/ns#"
   xmlns:rdf="http://www.w3.org/1999/02/22-rdf-syntax-ns#"
   xmlns:svg="http://www.w3.org/2000/svg"
   xmlns="http://www.w3.org/2000/svg"
   xmlns:xlink="http://www.w3.org/1999/xlink"
   id="svg1587"
   version="1.1"
   height="500"
   width="500">
  <metadata
     id="metadata1593">
    <rdf:RDF>
      <cc:Work
         rdf:about="">
        <dc:format>image/svg+xml</dc:format>
        <dc:type
           rdf:resource="http://purl.org/dc/dcmitype/StillImage" />
        <dc:title></dc:title>
      </cc:Work>
    </rdf:RDF>
  </metadata>
  <defs
     id="defs1591" />
  <symbol
     viewBox="-250.5 -250.36 501 501"
     id="a">
    <path
       id="path1537"
       stroke-linejoin="round"
       stroke-linecap="round"
       d="M141.83 99.3c5.5 0 10 4.5 10 10v22.8c0 5.5-4.5 10-10 10H-141.4c-5.5 0-10-4.5-10-10v-22.8c0-5.5 4.5-10 10-10h283.23z"
       stroke-miterlimit="10"
       stroke-width="10"
       stroke="#C8C8C8"
       fill="none" />
    <path
       id="path1539"
       d="M-135-92.7L0-170.64 135-92.7v200.54h-270z"
       fill="#666" />
    <path
       id="path1541"
       d="M122.53 107.84V70.38h-245.06v38.52"
       fill="#8C8C8C" />
    <path
       id="path1543"
       d="M-122.53-129.9L0-200.64l122.53 70.74V70.38h-245.06z"
       fill="#A5A5A5" />
    <path
       id="path1545"
       opacity=".25"
       d="M-122.53 39.7H-135v10.75h12.47zM135 39.7h-12.47v10.75H135z"
       fill="#231F20" />
    <path
       id="path1547"
       d="M124.4-128.82L0-200.64l-124.4 71.82L0-204.74z"
       fill="#ccc" />
    <path
       id="path1549"
       d="M-122.53-129.9l43.44-26.58-26.9 26.9V70.37h-16.53V-129.9zM106 70.38v-201.72l-29.52-26.73 46.04 28.16V70.37H106zM-30.7 70.38L0 88.1 30.7 70.4v-253.3L0-200.63l-30.7 17.73z"
       fill="#A5A5A5" />
    <path
       id="path1551"
       opacity=".25"
       d="M-106 68.4v39.44h-16.53v-39.5m245.06 0v39.5H106v-39.8"
       fill="#A5A5A5" />
    <path
       id="path1553"
       opacity=".25"
       stroke-linejoin="round"
       d="M74.36 56.48s2.84 0 6.32 0 6.32 4.5 6.32 10v22.8c0 5.5-4.5 10-10 10H-76.57c-5.5 0-10-4.5-10-10V66.5c0-5.5 2.8-10 6.2-10s6.18 0 6.18 0M46.83 142.1H14.26M-13.83 142.1H-46.4"
       stroke-miterlimit="10"
       stroke-width="10"
       stroke="#231F20"
       fill="none" />
    <path
       id="path1555"
       stroke-linejoin="round"
       stroke-linecap="round"
       d="M-30.7 142.1v-22.8M30.7 142.1v-22.8"
       stroke-miterlimit="10"
       stroke-width="10"
       stroke="#C8C8C8"
       fill="none" />
    <path
       id="path1557"
       stroke-linejoin="round"
       stroke-linecap="round"
       d="M-30.7 142.1l-19.73 28.05 19.72 11.4 19.7-11.4zM30.7 142.1L11 170.15l19.7 11.4 19.73-11.4z"
       stroke-miterlimit="10"
       stroke-width="10"
       stroke="#C8C8C8"
       fill="none" />
    <path
       id="path1559"
       stroke-linejoin="round"
       d="M74.36 76.48s2.84 0 6.32 0 6.32 4.5 6.32 10v22.8c0 5.5-4.5 10-10 10H-76.57c-5.5 0-10-4.5-10-10V86.5c0-5.5 2.8-10 6.2-10s6.18 0 6.18 0"
       stroke-miterlimit="10"
       stroke-width="10"
       stroke="#C8C8C8"
       fill="none" />
  </symbol>
  <symbol
     viewBox="-250.5 -250.5 501 501"
     id="b">
    <path
       id="path1562"
       opacity=".25"
       d="M67.5-87.55V37.03h-135V-87.55L0-126.53z" />
    <path
       id="path1564"
       d="M73.6-65.63v173.47H-73.6V-65.63L0-108.13z" />
    <g
       id="g1568"
       fill="#fff">
      <path
         id="path1566"
         d="M-45.02-47.67v93.9h17.7v-93.9h-17.7zM15.03-47.97l-17.7 94.2h17.7l6.9-39.3 3.15-21.9 3 21.75 7.05 39.45h17.1l-17.55-94.2H15.03z" />
    </g>
    <path
       id="path1570"
       d="M135 99.25l-135 .1-135-.1v-222.1L0-200.77l135 77.94z"
       fill="none" />
  </symbol>
  <symbol
     id="symbol1577"
     viewBox="-251.5 -251.36 503 503">
    <path
       id="path1573"
       d="M250-249.86h-500v500h500zM-250 250.14l500-500M250 250.14l-500-500"
       stroke-miterlimit="10"
       stroke-width="3"
       stroke="#231F20"
       fill="none" />
    <path
       id="path1575"
       d="M-173.2 99.36L0 199.36l173.2-100v-200L0-200.64l-173.2 100z"
       stroke-miterlimit="10"
       stroke-width="10"
       stroke="#f00"
       fill="none" />
  </symbol>
  <g
     id="g1585">
    <g
       id="g1583"
       transform="matrix(1 0 0 -1 256.5 252.334)">
      <use
         id="use1579"
         overflow="visible"
         xlink:href="#a"
         y="-250.36"
         x="-250.5"
         height="501"
         width="501" />
      <use
         id="use1581"
         overflow="visible"
         xlink:href="#b"
         y="-250.5"
         x="-250.5"
         height="501"
         width="501" />
    </g>
  </g>
  <rect
     y="203.74922"
     x="207.86243"
     height="105.24206"
     width="104.86753"
     id="rect2153"
     style="fill:#000000;fill-opacity:1;fill-rule:evenodd;stroke:none;stroke-width:0;stroke-miterlimit:4;stroke-dasharray:none;stroke-opacity:1" />
  <path
     id="path4"
     style="fill:#ffffff"
     d="m 246.05547,300.28677 -17.7,-94.2 h 17.7 l 6.9,39.3 3.15,21.9 3,-21.75 7,-39.45 h 17.1 l -17.55,94.2 z" />
</svg>
